<svg xmlns="http://www.w3.org/2000/svg" viewBox="0 0 96 96" role="img" aria-labelledby="title">
  <title id="title">Freezing rain</title>
  <path d="M20 53h54a14 14 0 0 0 1-28 23 23 0 0 0-44-3 17 17 0 0 0-11 31Z" fill="#B7C5CB" stroke="#26324A" stroke-width="5" stroke-linejoin="round"/>
  <g fill="none" stroke="#397F9A" stroke-width="5" stroke-linecap="round"><path d="m29 64-4 9M48 64l-4 9M67 64l-4 9"/></g>
  <g fill="none" stroke="#72B9C7" stroke-width="4" stroke-linecap="round">
    <path d="M25 78v10M20.5 80.5l9 5M29.5 80.5l-9 5M44 78v10M39.5 80.5l9 5M48.5 80.5l-9 5M63 78v10M58.5 80.5l9 5M67.5 80.5l-9 5"/>
  </g>
</svg>
